<?xml version="1.0" encoding="UTF-8" standalone="no"?>
<svg
   xmlns:dc="http://purl.org/dc/elements/1.1/"
   xmlns:cc="http://creativecommons.org/ns#"
   xmlns:rdf="http://www.w3.org/1999/02/22-rdf-syntax-ns#"
   xmlns:svg="http://www.w3.org/2000/svg"
   xmlns="http://www.w3.org/2000/svg"
   id="svg8"
   version="1.1"
   viewBox="0 0 270.73334 250.03125"
   height="250.03125mm"
   width="270.73334mm">
  <defs
     id="defs2" />
  <metadata
     id="metadata5">
    <rdf:RDF>
      <cc:Work
         rdf:about="">
        <dc:format>image/svg+xml</dc:format>
        <dc:type
           rdf:resource="http://purl.org/dc/dcmitype/StillImage" />
        <dc:title></dc:title>
      </cc:Work>
    </rdf:RDF>
  </metadata>
  <g
     transform="translate(-59.32404,107.47965)"
     style="display:inline"
     id="PolyEngine">    
    <path
       id="path876"
       d="m 174.40948,-107.47965 c -9.62945,16.649433 -19.25891,33.298884 -28.88839,49.948334 7.1881,12.535693 14.37672,25.070983 21.56482,37.606684 -12.1251,21.007379 -24.25046,42.015796 -36.37556,63.023199 -14.31256,-0.04905 -28.62469,-0.09945 -42.937249,-0.148497 -9.549469,16.600168 -19.099584,33.201204 -28.649061,49.80138 9.549469,16.6002 19.099592,33.19969 28.649061,49.79989 h 57.296609 c 7.33872,-12.14384 14.6775,-24.28731 22.0162,-36.43115 7.28983,12.14388 14.57937,24.28727 21.86927,36.43115 h 72.07556 c 19.85937,3.4e-4 31.01633,3.4e-4 58.01458,0 l -13.17186,-22.33829 -0.0392,0.0712 H 275.12065 L 259.7631,92.627256 275.12065,64.970244 h 30.71361 l 11.1679,20.111428 13.05521,-23.226016 c -3.67052,-6.301893 -7.34133,-12.603665 -11.01189,-18.905572 l -42.83423,0.148497 C 264.08593,22.091164 251.9606,1.082747 239.8355,-19.924632 l 21.23764,-37.606684 c -9.62948,-16.64945 -19.25892,-33.298901 -28.88842,-49.948334 z m -0.1606,99.8951578 h 58.22968 l 29.11558,50.4346132 -28.94594,50.139216 22.06012,37.320393 h -58.46144 l -21.998,-37.025 -29.11559,-50.434609 z m 6.52534,37.8036212 21.83745,37.827859 21.83746,-37.827859 z m 100.75643,46.814064 -8.91856,15.450187 8.91856,15.45017 h 17.83863 l 8.92008,-15.45017 -8.92008,-15.450187 z"
       style="opacity:1;fill:#FFFFFF;stroke-width:1"/>
  </g>
</svg>
