<?xml version="1.0" encoding="UTF-8" standalone="no"?>
<!-- Generator: Adobe Illustrator 19.1.0, SVG Export Plug-In . SVG Version: 6.00 Build 0)  -->

<svg
   xmlns:dc="http://purl.org/dc/elements/1.1/"
   xmlns:cc="http://creativecommons.org/ns#"
   xmlns:rdf="http://www.w3.org/1999/02/22-rdf-syntax-ns#"
   xmlns:svg="http://www.w3.org/2000/svg"
   xmlns="http://www.w3.org/2000/svg"
   xmlns:sodipodi="http://sodipodi.sourceforge.net/DTD/sodipodi-0.dtd"
   xmlns:inkscape="http://www.inkscape.org/namespaces/inkscape"
   version="1.1"
   id="Layer_1"
   x="0px"
   y="0px"
   viewBox="0 0 535.2 215.10001"
   xml:space="preserve"
   sodipodi:docname="PolyEngine_logo_yellow.svg"
   width="535.20001"
   height="215.10001"
   inkscape:version="0.92.4 (5da689c313, 2019-01-14)"><metadata
   id="metadata4205"><rdf:RDF><cc:Work
       rdf:about=""><dc:format>image/svg+xml</dc:format><dc:type
         rdf:resource="http://purl.org/dc/dcmitype/StillImage" /><dc:title></dc:title></cc:Work></rdf:RDF></metadata><defs
   id="defs4203" /><sodipodi:namedview
   pagecolor="#ffffff"
   bordercolor="#666666"
   borderopacity="1"
   objecttolerance="10"
   gridtolerance="10"
   guidetolerance="10"
   inkscape:pageopacity="0"
   inkscape:pageshadow="2"
   inkscape:window-width="2560"
   inkscape:window-height="1506"
   id="namedview4201"
   showgrid="false"
   fit-margin-top="15"
   fit-margin-left="15"
   fit-margin-right="15"
   fit-margin-bottom="15"
   inkscape:zoom="0.41093506"
   inkscape:cx="262.75001"
   inkscape:cy="-8.4499999"
   inkscape:window-x="-11"
   inkscape:window-y="-11"
   inkscape:window-maximized="1"
   inkscape:current-layer="Layer_1" />
<style
   type="text/css"
   id="style4092">
	.st0{fill:#FFC215;}
	.st1{fill:#FFFFFF;}
</style>
<g
   id="g4116"
   transform="translate(-146.2,-63.6)">
	<g
   id="g4114">
		<path
   class="st0"
   d="m 317.4,195.6 v 18.5 h -10.2 v -51 h 19.5 c 5.9,0 10.5,1.5 13.8,4.5 3.4,3 5,6.9 5,11.8 0,4.9 -1.7,8.8 -5,11.8 -3.4,3 -8,4.4 -13.8,4.4 z m 0,-7.8 h 9.3 c 2.8,0 5,-0.8 6.5,-2.3 1.5,-1.6 2.2,-3.5 2.2,-5.9 0,-2.5 -0.7,-4.5 -2.2,-6.1 -1.5,-1.6 -3.6,-2.4 -6.5,-2.4 h -9.3 z"
   id="path4094"
   inkscape:connector-curvature="0"
   style="fill:#ffc215" />
		<path
   class="st0"
   d="m 350.8,194.8 c 0,-5.6 1.6,-10.3 4.7,-13.9 3.2,-3.6 7.5,-5.4 13.1,-5.4 5.6,0 10,1.8 13.2,5.4 3.2,3.6 4.8,8.2 4.8,13.9 v 0.7 c 0,5.7 -1.6,10.3 -4.7,13.9 -3.2,3.6 -7.5,5.4 -13.1,5.4 -5.6,0 -10,-1.8 -13.2,-5.4 -3.2,-3.6 -4.7,-8.2 -4.7,-13.9 v -0.7 z m 10.2,0.8 c 0,3.5 0.6,6.2 1.8,8.3 1.2,2.1 3.2,3.1 5.9,3.1 2.6,0 4.6,-1.1 5.8,-3.2 1.2,-2.1 1.8,-4.9 1.8,-8.3 v -0.7 c 0,-3.4 -0.6,-6.1 -1.9,-8.2 -1.2,-2.1 -3.2,-3.2 -5.8,-3.2 -2.6,0 -4.6,1.1 -5.8,3.2 -1.2,2.1 -1.8,4.9 -1.8,8.2 z"
   id="path4096"
   inkscape:connector-curvature="0"
   style="fill:#ffc215" />
		<path
   class="st0"
   d="m 404.3,214.1 h -10.2 v -54.6 h 10.2 z"
   id="path4098"
   inkscape:connector-curvature="0"
   style="fill:#ffc215" />
		<path
   class="st0"
   d="m 427.1,198.2 0.4,2.1 h 0.2 l 7.3,-24.1 h 11 l -15.4,43.6 c -1.1,2.7 -2.5,5 -4.4,6.8 -1.8,1.9 -4.6,2.8 -8.3,2.8 -0.9,0 -1.7,-0.1 -2.4,-0.2 -0.7,-0.1 -1.6,-0.3 -2.7,-0.6 l 1.2,-7.5 c 0.3,0 0.6,0.1 1,0.1 0.3,0 0.7,0.1 0.9,0.1 1.7,0 3,-0.4 3.9,-1.2 0.9,-0.8 1.6,-1.9 2.1,-3.1 l 1.2,-2.9 -13.4,-37.9 h 11 z"
   id="path4100"
   inkscape:connector-curvature="0"
   style="fill:#ffc215" />
		<path
   class="st0"
   d="m 480.7,191.7 h -18.9 v 14.6 h 22.5 v 7.8 h -32.7 v -51 h 32.6 v 7.9 h -22.4 v 12.8 h 18.9 z"
   id="path4102"
   inkscape:connector-curvature="0"
   style="fill:#ffc215" />
		<path
   class="st0"
   d="m 500.7,176.2 0.5,5.4 c 1.3,-1.9 2.8,-3.4 4.7,-4.5 1.8,-1.1 3.9,-1.6 6.2,-1.6 3.8,0 6.8,1.2 9,3.7 2.1,2.5 3.2,6.4 3.2,11.7 v 23.2 H 514 V 191 c 0,-2.7 -0.5,-4.6 -1.4,-5.8 -0.9,-1.1 -2.4,-1.7 -4.3,-1.7 -1.5,0 -2.9,0.3 -4,0.9 -1.2,0.6 -2.1,1.4 -2.9,2.4 v 27.4 h -10.2 v -37.9 h 9.5 z"
   id="path4104"
   inkscape:connector-curvature="0"
   style="fill:#ffc215" />
		<path
   class="st0"
   d="m 531.1,195.5 c 0,-6 1.3,-10.8 3.9,-14.5 2.6,-3.7 6.2,-5.5 10.9,-5.5 2.1,0 4,0.5 5.6,1.4 1.6,1 3,2.3 4.1,4.1 l 0.8,-4.8 h 8.8 V 214 c 0,4.9 -1.6,8.7 -4.8,11.4 -3.2,2.7 -7.7,4 -13.5,4 -1.9,0 -3.9,-0.3 -6.1,-0.8 -2.1,-0.5 -4.1,-1.2 -6,-2.2 l 1.7,-7.6 c 1.6,0.7 3.2,1.3 4.8,1.7 1.7,0.4 3.5,0.6 5.4,0.6 2.8,0 4.9,-0.6 6.2,-1.8 1.3,-1.2 2,-3 2,-5.5 v -3.4 c -1.1,1.4 -2.4,2.5 -4,3.3 -1.5,0.7 -3.3,1.1 -5.2,1.1 -4.6,0 -8.3,-1.7 -10.9,-5.1 -2.6,-3.4 -3.9,-7.9 -3.9,-13.5 v -0.7 z m 10.2,0.7 c 0,3.3 0.6,5.9 1.7,7.8 1.1,1.9 2.9,2.9 5.4,2.9 1.6,0 2.9,-0.3 4,-0.9 1.1,-0.6 2,-1.4 2.6,-2.5 v -16.4 c -0.7,-1.2 -1.5,-2.1 -2.6,-2.7 -1.1,-0.6 -2.4,-0.9 -3.9,-0.9 -2.5,0 -4.3,1.1 -5.5,3.3 -1.1,2.2 -1.7,5.1 -1.7,8.7 z"
   id="path4106"
   inkscape:connector-curvature="0"
   style="fill:#ffc215" />
		<path
   class="st0"
   d="m 584.5,167.2 h -10.2 v -7.7 h 10.2 z m 0,46.9 h -10.2 v -37.9 h 10.2 z"
   id="path4108"
   inkscape:connector-curvature="0"
   style="fill:#ffc215" />
		<path
   class="st0"
   d="m 603,176.2 0.5,5.4 c 1.3,-1.9 2.8,-3.4 4.7,-4.5 1.9,-1.1 3.9,-1.6 6.2,-1.6 3.8,0 6.8,1.2 9,3.7 2.1,2.5 3.2,6.4 3.2,11.7 v 23.2 H 616.3 V 191 c 0,-2.7 -0.5,-4.6 -1.4,-5.8 -0.9,-1.1 -2.4,-1.7 -4.3,-1.7 -1.5,0 -2.9,0.3 -4,0.9 -1.2,0.6 -2.1,1.4 -2.9,2.4 v 27.4 h -10.2 v -37.9 h 9.5 z"
   id="path4110"
   inkscape:connector-curvature="0"
   style="fill:#ffc215" />
		<path
   class="st0"
   d="m 651.3,214.9 c -5.7,0 -10.1,-1.7 -13.2,-5.2 -3.2,-3.5 -4.8,-7.9 -4.8,-13.4 v -1.4 c 0,-5.7 1.5,-10.3 4.6,-13.9 3.1,-3.6 7.3,-5.4 12.7,-5.4 5.1,0 9,1.6 11.7,4.7 2.7,3.1 4.1,7.3 4.1,12.6 v 5.3 h -22.6 l -0.1,0.2 c 0.2,2.6 0.9,4.7 2.4,6.3 1.4,1.6 3.5,2.4 6.3,2.4 2.3,0 4.2,-0.2 5.8,-0.7 1.6,-0.5 3.3,-1.2 5,-2.1 l 2.8,6.3 c -1.5,1.2 -3.6,2.3 -6.2,3.1 -2.6,0.8 -5.4,1.2 -8.5,1.2 z m -0.7,-31.5 c -2.1,0 -3.6,0.7 -4.7,2.1 -1.1,1.4 -1.8,3.3 -2,5.6 l 0.1,0.2 h 12.5 v -0.8 c 0,-2.2 -0.5,-4 -1.4,-5.2 -1,-1.2 -2.4,-1.9 -4.5,-1.9 z"
   id="path4112"
   inkscape:connector-curvature="0"
   style="fill:#ffc215" />
	</g>
</g>

<g
   id="g4128"
   transform="translate(-146.2,-63.6)">
	<path
   class="st0"
   d="m 220.6,78.6 -59.4,34.3 V 204 l 59.4,34.3 V 215.8 L 280,181.5 V 113 Z m -14.1,93.6 V 121 l 44.3,25.6 z"
   id="path4124"
   inkscape:connector-curvature="0"
   style="fill:#ffc215" />
	<polygon
   class="st0"
   points="161.2,229.5 220.6,263.7 220.6,247.4 161.2,213.1 "
   id="polygon4126"
   style="fill:#ffc215" />
</g>


<g
   id="g4182"
   transform="translate(-146.2,-63.6)">
	<g
   id="g4180">
		<path
   class="st1"
   d="m 301.3,726.4 v 18.5 h -10.2 v -51 h 19.5 c 5.9,0 10.5,1.5 13.8,4.5 3.4,3 5,6.9 5,11.8 0,4.9 -1.7,8.8 -5,11.8 -3.4,3 -8,4.4 -13.8,4.4 z m 0,-7.8 h 9.3 c 2.8,0 5,-0.8 6.5,-2.3 1.5,-1.6 2.2,-3.5 2.2,-5.9 0,-2.5 -0.7,-4.5 -2.2,-6.1 -1.5,-1.6 -3.6,-2.4 -6.5,-2.4 h -9.3 z"
   id="path4160"
   inkscape:connector-curvature="0"
   style="fill:#ffffff" />
		<path
   class="st1"
   d="m 334.7,725.6 c 0,-5.6 1.6,-10.3 4.7,-13.9 3.2,-3.6 7.5,-5.4 13.1,-5.4 5.6,0 10,1.8 13.2,5.4 3.2,3.6 4.8,8.2 4.8,13.9 v 0.7 c 0,5.7 -1.6,10.3 -4.7,13.9 -3.1,3.6 -7.5,5.4 -13.1,5.4 -5.6,0 -10,-1.8 -13.2,-5.4 -3.2,-3.6 -4.7,-8.2 -4.7,-13.9 v -0.7 z m 10.2,0.8 c 0,3.5 0.6,6.2 1.8,8.3 1.2,2.1 3.2,3.1 5.9,3.1 2.6,0 4.6,-1.1 5.8,-3.2 1.2,-2.1 1.8,-4.9 1.8,-8.3 v -0.7 c 0,-3.4 -0.6,-6.1 -1.9,-8.2 -1.2,-2.1 -3.2,-3.2 -5.8,-3.2 -2.6,0 -4.6,1.1 -5.8,3.2 -1.2,2.1 -1.8,4.9 -1.8,8.2 z"
   id="path4162"
   inkscape:connector-curvature="0"
   style="fill:#ffffff" />
		<path
   class="st1"
   d="M 388.2,744.9 H 378 v -54.6 h 10.2 z"
   id="path4164"
   inkscape:connector-curvature="0"
   style="fill:#ffffff" />
		<path
   class="st1"
   d="m 411,729 0.4,2.1 h 0.2 l 7.3,-24.1 h 11 l -15.4,43.6 c -1.1,2.7 -2.5,5 -4.4,6.8 -1.8,1.9 -4.6,2.8 -8.3,2.8 -0.9,0 -1.7,-0.1 -2.4,-0.2 -0.7,-0.1 -1.6,-0.3 -2.7,-0.6 l 1.2,-7.5 c 0.3,0 0.6,0.1 1,0.1 0.3,0 0.7,0.1 0.9,0.1 1.7,0 3,-0.4 3.9,-1.2 0.9,-0.8 1.6,-1.9 2.1,-3.1 L 407,744.9 393.6,707 h 11 z"
   id="path4166"
   inkscape:connector-curvature="0"
   style="fill:#ffffff" />
		<path
   class="st1"
   d="m 464.6,722.5 h -18.9 v 14.6 h 22.5 v 7.8 h -32.7 v -51 h 32.6 v 7.9 h -22.4 v 12.8 h 18.9 z"
   id="path4168"
   inkscape:connector-curvature="0"
   style="fill:#ffffff" />
		<path
   class="st1"
   d="m 484.7,707 0.5,5.4 c 1.3,-1.9 2.8,-3.4 4.7,-4.5 1.8,-1.1 3.9,-1.6 6.2,-1.6 3.8,0 6.8,1.2 9,3.7 2.1,2.5 3.2,6.4 3.2,11.7 v 23.2 H 498 v -23.2 c 0,-2.7 -0.5,-4.6 -1.4,-5.8 -0.9,-1.1 -2.4,-1.7 -4.3,-1.7 -1.5,0 -2.9,0.3 -4,0.9 -1.2,0.6 -2.1,1.4 -2.9,2.4 v 27.4 H 475.2 V 707 Z"
   id="path4170"
   inkscape:connector-curvature="0"
   style="fill:#ffffff" />
		<path
   class="st1"
   d="m 515,726.3 c 0,-6 1.3,-10.8 3.9,-14.5 2.6,-3.7 6.2,-5.5 10.9,-5.5 2.1,0 4,0.5 5.6,1.4 1.6,1 3,2.3 4.1,4.1 l 0.8,-4.8 h 8.8 v 37.7 c 0,4.9 -1.6,8.7 -4.8,11.4 -3.2,2.7 -7.7,4 -13.5,4 -1.9,0 -3.9,-0.3 -6.1,-0.8 -2.1,-0.5 -4.1,-1.2 -6,-2.2 l 1.7,-7.6 c 1.6,0.7 3.2,1.3 4.8,1.7 1.7,0.4 3.5,0.6 5.4,0.6 2.8,0 4.9,-0.6 6.2,-1.8 1.3,-1.2 2,-3 2,-5.5 v -3.4 c -1.1,1.4 -2.4,2.5 -4,3.3 -1.6,0.8 -3.3,1.1 -5.2,1.1 -4.6,0 -8.3,-1.7 -10.9,-5.1 -2.6,-3.4 -3.9,-7.9 -3.9,-13.5 v -0.6 z m 10.2,0.7 c 0,3.3 0.6,5.9 1.7,7.8 1.1,1.9 2.9,2.9 5.4,2.9 1.6,0 2.9,-0.3 4,-0.9 1.1,-0.6 2,-1.4 2.6,-2.5 v -16.4 c -0.7,-1.2 -1.5,-2.1 -2.6,-2.7 -1.1,-0.6 -2.4,-0.9 -3.9,-0.9 -2.5,0 -4.3,1.1 -5.5,3.3 -1.1,2.2 -1.7,5.1 -1.7,8.7 z"
   id="path4172"
   inkscape:connector-curvature="0"
   style="fill:#ffffff" />
		<path
   class="st1"
   d="m 568.5,698 h -10.2 v -7.7 h 10.2 z m 0,46.9 H 558.3 V 707 h 10.2 z"
   id="path4174"
   inkscape:connector-curvature="0"
   style="fill:#ffffff" />
		<path
   class="st1"
   d="m 586.9,707 0.5,5.4 c 1.3,-1.9 2.8,-3.4 4.7,-4.5 1.8,-1.1 3.9,-1.6 6.2,-1.6 3.8,0 6.8,1.2 9,3.7 2.1,2.5 3.2,6.4 3.2,11.7 v 23.2 h -10.3 v -23.2 c 0,-2.7 -0.5,-4.6 -1.4,-5.8 -0.9,-1.1 -2.4,-1.7 -4.3,-1.7 -1.5,0 -2.9,0.3 -4,0.9 -1.2,0.6 -2.1,1.4 -2.9,2.4 v 27.4 H 577.4 V 707 Z"
   id="path4176"
   inkscape:connector-curvature="0"
   style="fill:#ffffff" />
		<path
   class="st1"
   d="m 635.2,745.7 c -5.7,0 -10.1,-1.7 -13.2,-5.2 -3.2,-3.5 -4.8,-7.9 -4.8,-13.4 v -1.4 c 0,-5.7 1.5,-10.3 4.6,-13.9 3.1,-3.6 7.3,-5.4 12.7,-5.4 5.1,0 9,1.6 11.7,4.7 2.7,3.1 4.1,7.3 4.1,12.6 v 5.3 h -22.6 l -0.1,0.2 c 0.2,2.6 0.9,4.7 2.4,6.3 1.4,1.6 3.5,2.4 6.3,2.4 2.3,0 4.2,-0.2 5.8,-0.7 1.6,-0.5 3.3,-1.2 5,-2.1 l 2.8,6.3 c -1.5,1.2 -3.6,2.3 -6.2,3.1 -2.6,0.8 -5.4,1.2 -8.5,1.2 z m -0.6,-31.5 c -2.1,0 -3.6,0.7 -4.7,2.1 -1.1,1.4 -1.8,3.3 -2,5.6 l 0.1,0.2 h 12.5 v -0.8 c 0,-2.2 -0.5,-4 -1.4,-5.2 -1,-1.2 -2.5,-1.9 -4.5,-1.9 z"
   id="path4178"
   inkscape:connector-curvature="0"
   style="fill:#ffffff" />
	</g>
</g>
<g
   id="g4188"
   transform="translate(-146.2,-63.6)">
	<path
   class="st1"
   d="m 204.5,609.4 -59.4,34.3 v 91.1 l 59.4,34.3 v -22.5 l 59.4,-34.3 v -68.5 z m -14,93.6 v -51.2 l 44.3,25.6 z"
   id="path4184"
   inkscape:connector-curvature="0"
   style="fill:#ffffff" />
	<polygon
   class="st1"
   points="145.1,760.3 204.5,794.5 204.5,778.2 145.1,743.9 "
   id="polygon4186"
   style="fill:#ffffff" />
</g>
<rect
   x="738.79999"
   y="108.6"
   style="fill:none"
   width="242"
   height="205"
   id="rect4190" />

</svg>