# Exported from Wings 3D 0.98.32a
mtllib lowpolybullet.mtl
o Bullet
#42 vertices, 76 faces
v 1.00000000 2.7269291e-16 4.45341324
v 0.50000000 -0.86602540 4.45341324
v -0.50000000 -0.86602540 4.45341324
v -1.00000000 1.5022823e-16 4.45341324
v -0.50000000 0.86602540 4.45341324
v 0.50000000 0.86602540 4.45341324
v 1.00000000 1.1362018e-16 1.85555834
v 0.50000000 -0.86602540 1.85555834
v -0.50000000 -0.86602540 1.85555834
v -1.00000000 -8.8445010e-18 1.85555834
v -0.50000000 0.86602540 1.85555834
v 0.50000000 0.86602540 1.85555834
v 0.40700000 -0.70494468 4.45341324
v 0.81400000 2.3827600e-16 4.45341324
v 0.40700000 0.70494468 4.45341324
v -0.40700000 0.70494468 4.45341324
v -0.81400000 1.8464515e-16 4.45341324
v -0.40700000 -0.70494468 4.45341324
v 0.40700000 -0.70494468 2.04084554
v 0.81400000 9.0548834e-17 2.04084554
v 0.40700000 0.70494468 2.04084554
v -0.40700000 0.70494468 2.04084554
v -0.81400000 3.6917982e-17 2.04084554
v -0.40700000 -0.70494468 2.04084554
v 0.44794420 -0.77586211 4.08844669
v 0.89588840 2.1060443e-16 4.08844669
v 0.44794420 0.77586211 4.08844669
v -0.44794420 0.77586211 4.08844669
v -0.89588840 1.5157831e-16 4.08844669
v -0.44794420 -0.77586211 4.08844669
v 0.44794420 -0.77586211 4.83005664
v 0.89588840 2.5601494e-16 4.83005664
v 0.44794420 0.77586211 4.83005664
v -0.44794420 0.77586211 4.83005664
v -0.89588840 1.9698883e-16 4.83005664
v -0.44794420 -0.77586211 4.83005664
v 0.28775935 -0.49841382 5.46942925
v 0.57551871 5.5997530e-16 5.46942925
v 0.28775935 0.49841382 5.46942925
v -0.28775935 0.49841382 5.46942925
v -0.57551871 5.2205692e-16 5.46942925
v -0.28775935 -0.49841382 5.46942925
vt 1.4704327e-2 0.73297114
vt 1.4704327e-2 0.73297114
vt 2.1532262e-2 0.49913143
vt 3.6853017e-2 0.85771966
vt 3.6853017e-2 0.85771966
vt 5.9210683e-2 0.32367864
vt 5.9210683e-2 2.9932472e-2
vt 5.9210683e-2 2.9932472e-2
vt 5.9210683e-2 0.32367864
vt 9.6438709e-2 0.96651989
vt 9.6438709e-2 0.96651989
vt 0.10423700 0.35588262
vt 0.10423700 0.64238024
vt 0.15832060 2.9932472e-2
vt 0.15832060 0.32367864
vt 0.15832060 2.9932472e-2
vt 0.15832060 0.32367864
vt 0.16540451 0.70621482
vt 0.16540451 0.70621482
vt 0.17616453 0.82534206
vt 0.17616453 0.82534206
vt 0.19251245 0.93939825
vt 0.19251245 0.93939825
vt 0.25743051 2.9932472e-2
vt 0.25743051 2.9932472e-2
vt 0.25743051 0.32367864
vt 0.25743051 0.32367864
vt 0.26964648 0.35588262
vt 0.26964648 0.64238024
vt 0.29439061 0.94074199
vt 0.29439061 0.94074199
vt 0.30946650 0.82615457
vt 0.30946650 0.82615457
vt 0.31926380 0.70826860
vt 0.31926380 0.70826860
vt 0.35235122 0.49913143
vt 0.35654043 2.9932472e-2
vt 0.35654043 0.32367864
vt 0.35654043 2.9932472e-2
vt 0.35654043 0.32367864
vt 0.38620769 0.44437632
vt 0.39054388 0.96651989
vt 0.39054388 0.96651989
vt 0.40262329 0.22067683
vt 0.42527003 0.22067683
vt 0.43454421 0.36065502
vt 0.43454421 0.52809762
vt 0.44852438 0.85724934
vt 0.44852438 0.85724934
vt 0.46350162 0.32612118
vt 0.46350162 0.11523247
vt 0.46914490 0.73317884
vt 0.46914490 0.73317884
vt 0.47482498 0.13484512
vt 0.47482498 0.30650853
vt 0.49755827 0.56482604
vt 0.49755827 0.98677840
vt 0.49755827 0.56482604
vt 0.53121724 0.36065502
vt 0.53121724 0.52809762
vt 0.57393490 0.13484512
vt 0.57393490 0.30650853
vt 0.57955375 0.44437632
vt 0.58525827 0.11523247
vt 0.58525827 0.32612118
vt 0.59669969 0.38985881
vt 0.62348986 0.22067683
vt 0.62556122 0.12334006
vt 0.64613659 0.22067683
vt 0.65998165 0.98677840
vt 0.65998165 0.56482604
vt 0.65998165 0.98677840
vt 0.67791138 0.24919604
vt 0.67791138 0.53052158
vt 0.69041875 0.23567660
vt 0.69041875 1.1003527e-2
vt 0.82013381 0.23567660
vt 0.82013381 1.1003527e-2
vt 0.82240502 0.56482604
vt 0.82240502 0.98677840
vt 0.82240502 0.56482604
vt 0.84033475 0.24919604
vt 0.84033475 0.53052158
vt 0.88499134 0.12334006
vt 0.92154644 0.38985881
vt 0.98482839 0.56482604
vt 0.98482839 0.98677840
vt 0.98482839 0.56482604
vt 0.98482839 0.98677840
vn 0.65465367 1.2588746e-16 0.75592895
vn 0.32732684 -0.56694671 0.75592895
vn -0.32732684 -0.56694671 0.75592895
vn -0.65465367 -2.0981243e-16 0.75592895
vn -0.32732684 0.56694671 0.75592895
vn 0.32732684 0.56694671 0.75592895
vn 0.86602540 1.6653345e-16 -0.50000000
vn 0.37796447 -0.65465367 -0.65465367
vn -0.32732684 -0.56694671 -0.75592895
vn -0.96076892 -2.4633637e-16 -0.27735010
vn -0.25000000 0.43301270 -0.86602540
vn 0.43301270 0.75000000 -0.50000000
vn -0.32732684 0.56694671 0.75592895
vn -0.65465367 -4.1962486e-17 0.75592895
vn -0.32732684 -0.56694671 0.75592895
vn 0.32732684 -0.56694671 0.75592895
vn 0.65465367 1.1539684e-16 0.75592895
vn 0.32732684 0.56694671 0.75592895
vn -0.32732684 0.56694671 0.75592895
vn -0.96076892 -2.3094035e-16 0.27735010
vn -0.25000000 -0.43301270 0.86602540
vn 0.43301270 -0.75000000 0.50000000
vn 0.86602540 2.2204460e-16 0.50000000
vn 0.37796447 0.65465367 0.65465367
vn 0.32732684 -0.56694671 -0.75592895
vn 0.75592895 1.4536232e-16 -0.65465367
vn 0.43301270 0.75000000 -0.50000000
vn -0.43301270 0.75000000 -0.50000000
vn -0.50000000 3.6856785e-16 -0.86602540
vn -0.48038446 -0.83205029 -0.27735010
vn 0.48622285 -0.84216269 0.23312947
vn 0.97244571 1.6254847e-17 0.23312947
vn 0.48622285 0.84216269 0.23312947
vn -0.48622285 0.84216269 0.23312947
vn -0.97244571 -1.7880332e-16 0.23312947
vn -0.48622285 -0.84216269 0.23312947
vn 0.24702596 -0.42786151 0.86943240
vn 0.77487941 1.3535903e-17 0.63210908
vn 0.19305005 0.33437250 0.92245689
vn -0.33128703 0.57380596 0.74899641
vn -0.66257405 -2.3148216e-16 0.74899641
vn -0.28451543 -0.49279519 0.82231616
g Bullet_Bullet_UV
usemtl Bullet_UV
f 1/80/1 8/71/8 7/79/7
f 1/80/1 12/86/12 6/89/6
f 1/69/1 13/61/13 2/64/2
f 2/70/2 8/71/8 1/80/1
f 2/64/2 13/61/13 3/51/3
f 3/57/3 8/71/8 2/70/2
f 3/57/3 10/71/10 9/58/9
f 3/51/3 17/45/17 4/44/4
f 4/72/4 10/71/10 3/57/3
f 4/44/4 17/45/17 5/50/5
f 5/80/5 10/71/10 4/72/4
f 5/80/5 12/88/12 11/81/11
f 5/50/5 15/62/15 6/65/6
f 6/87/6 12/88/12 5/80/5
f 6/65/6 15/62/15 1/69/1
f 7/79/7 12/86/12 1/80/1
f 8/82/8 12/66/12 7/73/7
f 9/56/9 8/71/8 3/57/3
f 9/85/9 11/74/11 8/82/8
f 10/83/10 11/74/11 9/85/9
f 11/81/11 10/71/10 5/80/5
f 12/66/12 8/82/8 11/74/11
f 13/61/13 1/69/1 14/67/14
f 13/27/13 24/39/24 18/40/18
f 14/67/14 1/69/1 15/62/15
f 14/17/14 20/16/20 13/27/13
f 15/62/15 5/50/5 16/55/16
f 15/6/15 20/16/20 14/17/14
f 16/55/16 5/50/5 17/45/17
f 16/14/16 22/15/22 15/8/15
f 17/45/17 3/51/3 18/54/18
f 17/24/17 22/15/22 16/14/16
f 18/54/18 3/51/3 13/61/13
f 18/37/18 24/38/24 17/24/17
f 19/25/19 13/27/13 20/16/20
f 19/76/19 21/84/21 24/68/24
f 19/25/19 24/39/24 13/27/13
f 20/16/20 15/6/15 21/7/21
f 20/78/20 21/84/21 19/76/19
f 21/9/21 15/8/15 22/15/22
f 22/15/22 17/24/17 23/26/23
f 22/77/22 24/68/24 21/84/21
f 23/26/23 17/24/17 24/38/24
f 23/75/23 24/68/24 22/77/22
f 25/12/25 29/36/29 26/3/26
f 25/35/25 31/33/31 30/53/30
f 26/3/26 28/29/28 27/13/27
f 26/19/26 31/33/31 25/35/25
f 27/2/27 33/5/33 26/19/26
f 28/29/28 26/3/26 29/36/29
f 28/34/28 33/48/33 27/52/27
f 29/36/29 25/12/25 30/28/30
f 29/18/29 35/21/35 28/34/28
f 30/1/30 35/21/35 29/18/29
f 31/33/31 26/19/26 32/20/32
f 31/33/31 42/42/42 36/49/36
f 32/20/32 26/19/26 33/5/33
f 32/20/32 38/22/38 31/33/31
f 33/48/33 28/34/28 34/32/34
f 33/5/33 38/22/38 32/20/32
f 34/32/34 28/34/28 35/21/35
f 34/32/34 40/30/40 33/48/33
f 35/21/35 30/1/30 36/4/36
f 35/21/35 40/30/40 34/32/34
f 36/49/36 30/53/30 31/33/31
f 36/4/36 42/11/42 35/21/35
f 37/31/37 31/33/31 38/22/38
f 37/46/37 39/63/39 42/41/42
f 37/31/37 42/42/42 31/33/31
f 38/22/38 33/5/33 39/10/39
f 38/59/38 39/63/39 37/46/37
f 39/43/39 33/48/33 40/30/40
f 40/30/40 35/21/35 41/23/41
f 40/60/40 42/41/42 39/63/39
f 41/23/41 35/21/35 42/11/42
f 41/47/41 42/41/42 40/60/40
